<svg width="50" height="50" viewBox="0 0 50 50" fill="none" color='black' xmlns="http://www.w3.org/2000/svg">
<path d="M1.38361 1.38358C-0.461205 3.2284 -0.461205 6.21937 1.38361 8.06419L18.3194 24.9999L1.38361 41.936C-0.461205 43.7806 -0.461205 46.7718 1.38361 48.6165C3.22838 50.4612 6.2194 50.4612 8.06418 48.6165L24.9999 31.6804L41.936 48.6165C43.7807 50.4612 46.7718 50.4612 48.6165 48.6165C50.4612 46.7718 50.4612 43.7806 48.6165 41.936L31.6804 24.9999L48.6165 8.06424C50.4612 6.21947 50.4612 3.22845 48.6165 1.38367C46.7713 -0.461146 43.7807 -0.461146 41.936 1.38367L24.9999 18.3194L8.06418 1.38358C6.2194 -0.461193 3.22838 -0.461193 1.38361 1.38358Z" fill="currentColor"/>
</svg>
