<svg width="50" height="50" viewBox="0 0 50 50"
color="red" fill="currentColor" xmlns="http://www.w3.org/2000/svg">
<path d="M23.7345 15.8053L25 17.7939L26.2655 15.8053C28.1762 12.8027 31.5519 10.875 35.4167 10.875C41.4632 10.875 46.4167 15.8284 46.4167 21.875C46.4167 24.5487 45.1832 27.3628 43.1263 30.1676C41.0809 32.9569 38.3209 35.6005 35.5085 37.9016C32.7034 40.1966 29.8908 42.1149 27.7754 43.4611C26.7192 44.1332 25.8403 44.6605 25.2278 45.0184C25.1483 45.0649 25.0732 45.1086 25.0028 45.1493C24.932 45.108 24.8564 45.0637 24.7762 45.0165C24.1635 44.6559 23.2845 44.1249 22.228 43.4486C20.1121 42.0941 17.2989 40.1658 14.4931 37.8638C11.6799 35.5557 8.91906 32.9082 6.87296 30.1227C4.81457 27.3205 3.58333 24.5202 3.58333 21.875C3.58333 15.8284 8.53676 10.875 14.5833 10.875C18.4481 10.875 21.8238 12.8027 23.7345 15.8053Z" stroke="black" stroke-width="3"/>
</svg>
